<mxfile host="Electron" agent="Mozilla/5.0 (Windows NT 10.0; Win64; x64) AppleWebKit/537.36 (KHTML, like Gecko) draw.io/26.2.2 Chrome/134.0.6998.178 Electron/35.1.2 Safari/537.36" version="26.2.2">
  <diagram name="Page-1" id="nmM2ICLNHWc5m7DLxpwW">
    <mxGraphModel dx="1028" dy="662" grid="1" gridSize="10" guides="1" tooltips="1" connect="1" arrows="1" fold="1" page="1" pageScale="1" pageWidth="850" pageHeight="1100" math="0" shadow="0">
      <root>
        <mxCell id="0" />
        <mxCell id="1" parent="0" />
        <mxCell id="oM4cG6WDBX3puQPiR0Ti-23" value="" style="rounded=0;whiteSpace=wrap;html=1;" vertex="1" parent="1">
          <mxGeometry x="40" width="780" height="590" as="geometry" />
        </mxCell>
        <mxCell id="oM4cG6WDBX3puQPiR0Ti-22" value="" style="rounded=0;whiteSpace=wrap;html=1;fillColor=#6d8764;fontColor=#ffffff;strokeColor=#3A5431;" vertex="1" parent="1">
          <mxGeometry x="110" y="40" width="620" height="530" as="geometry" />
        </mxCell>
        <mxCell id="lk6zZJpGpk3EefxU4Tmx-1" value="Customer&lt;div&gt;Feedback&lt;/div&gt;" style="rounded=0;whiteSpace=wrap;html=1;" parent="1" vertex="1">
          <mxGeometry x="380" width="120" height="40" as="geometry" />
        </mxCell>
        <mxCell id="lk6zZJpGpk3EefxU4Tmx-2" value="Customer" style="shape=umlActor;verticalLabelPosition=bottom;verticalAlign=top;html=1;outlineConnect=0;" parent="1" vertex="1">
          <mxGeometry x="50" y="160" width="30" height="60" as="geometry" />
        </mxCell>
        <mxCell id="oM4cG6WDBX3puQPiR0Ti-10" style="edgeStyle=orthogonalEdgeStyle;rounded=0;orthogonalLoop=1;jettySize=auto;html=1;exitX=0;exitY=0.5;exitDx=0;exitDy=0;entryX=0;entryY=0.5;entryDx=0;entryDy=0;endArrow=none;startFill=0;" edge="1" parent="1" source="oM4cG6WDBX3puQPiR0Ti-2" target="oM4cG6WDBX3puQPiR0Ti-3">
          <mxGeometry relative="1" as="geometry" />
        </mxCell>
        <mxCell id="oM4cG6WDBX3puQPiR0Ti-16" style="edgeStyle=orthogonalEdgeStyle;rounded=0;orthogonalLoop=1;jettySize=auto;html=1;exitX=1;exitY=0.5;exitDx=0;exitDy=0;entryX=0;entryY=0;entryDx=0;entryDy=0;curved=1;endArrow=none;startFill=0;" edge="1" parent="1" source="oM4cG6WDBX3puQPiR0Ti-2" target="oM4cG6WDBX3puQPiR0Ti-15">
          <mxGeometry relative="1" as="geometry" />
        </mxCell>
        <mxCell id="oM4cG6WDBX3puQPiR0Ti-2" value="Submit feedback" style="ellipse;whiteSpace=wrap;html=1;" vertex="1" parent="1">
          <mxGeometry x="320" y="80" width="120" height="80" as="geometry" />
        </mxCell>
        <mxCell id="oM4cG6WDBX3puQPiR0Ti-18" style="edgeStyle=orthogonalEdgeStyle;rounded=0;orthogonalLoop=1;jettySize=auto;html=1;exitX=1;exitY=0.5;exitDx=0;exitDy=0;entryX=0;entryY=1;entryDx=0;entryDy=0;curved=1;endArrow=none;startFill=0;" edge="1" parent="1" source="oM4cG6WDBX3puQPiR0Ti-3" target="oM4cG6WDBX3puQPiR0Ti-15">
          <mxGeometry relative="1" as="geometry" />
        </mxCell>
        <mxCell id="oM4cG6WDBX3puQPiR0Ti-3" value="Edit feedback" style="ellipse;whiteSpace=wrap;html=1;" vertex="1" parent="1">
          <mxGeometry x="320" y="320" width="120" height="80" as="geometry" />
        </mxCell>
        <mxCell id="oM4cG6WDBX3puQPiR0Ti-4" value="Create&amp;nbsp; Feedback" style="ellipse;whiteSpace=wrap;html=1;" vertex="1" parent="1">
          <mxGeometry x="130" y="230" width="120" height="80" as="geometry" />
        </mxCell>
        <mxCell id="oM4cG6WDBX3puQPiR0Ti-11" style="edgeStyle=orthogonalEdgeStyle;rounded=0;orthogonalLoop=1;jettySize=auto;html=1;exitX=0;exitY=0.5;exitDx=0;exitDy=0;endArrow=none;startFill=0;" edge="1" parent="1" source="oM4cG6WDBX3puQPiR0Ti-8">
          <mxGeometry relative="1" as="geometry">
            <mxPoint x="300" y="229.76470588235293" as="targetPoint" />
          </mxGeometry>
        </mxCell>
        <mxCell id="oM4cG6WDBX3puQPiR0Ti-17" style="edgeStyle=orthogonalEdgeStyle;rounded=0;orthogonalLoop=1;jettySize=auto;html=1;exitX=1;exitY=0.5;exitDx=0;exitDy=0;entryX=0;entryY=0.5;entryDx=0;entryDy=0;curved=1;endArrow=none;startFill=0;" edge="1" parent="1" source="oM4cG6WDBX3puQPiR0Ti-8" target="oM4cG6WDBX3puQPiR0Ti-15">
          <mxGeometry relative="1" as="geometry" />
        </mxCell>
        <mxCell id="oM4cG6WDBX3puQPiR0Ti-8" value="View Feedback" style="ellipse;whiteSpace=wrap;html=1;" vertex="1" parent="1">
          <mxGeometry x="380" y="190" width="120" height="80" as="geometry" />
        </mxCell>
        <mxCell id="oM4cG6WDBX3puQPiR0Ti-13" value="" style="endArrow=block;html=1;rounded=0;entryX=1;entryY=0.5;entryDx=0;entryDy=0;endFill=0;" edge="1" parent="1" target="oM4cG6WDBX3puQPiR0Ti-4">
          <mxGeometry width="50" height="50" relative="1" as="geometry">
            <mxPoint x="300" y="270" as="sourcePoint" />
            <mxPoint x="430" y="240" as="targetPoint" />
          </mxGeometry>
        </mxCell>
        <mxCell id="oM4cG6WDBX3puQPiR0Ti-14" value="" style="endArrow=none;html=1;rounded=0;exitX=0;exitY=0.5;exitDx=0;exitDy=0;" edge="1" parent="1" source="oM4cG6WDBX3puQPiR0Ti-4" target="lk6zZJpGpk3EefxU4Tmx-2">
          <mxGeometry width="50" height="50" relative="1" as="geometry">
            <mxPoint x="380" y="290" as="sourcePoint" />
            <mxPoint x="430" y="240" as="targetPoint" />
          </mxGeometry>
        </mxCell>
        <mxCell id="oM4cG6WDBX3puQPiR0Ti-15" value="Review Feedback" style="ellipse;whiteSpace=wrap;html=1;" vertex="1" parent="1">
          <mxGeometry x="590" y="230" width="120" height="80" as="geometry" />
        </mxCell>
        <mxCell id="oM4cG6WDBX3puQPiR0Ti-19" value="Feedback Agent" style="shape=umlActor;verticalLabelPosition=bottom;verticalAlign=top;html=1;outlineConnect=0;" vertex="1" parent="1">
          <mxGeometry x="770" y="160" width="30" height="60" as="geometry" />
        </mxCell>
        <mxCell id="oM4cG6WDBX3puQPiR0Ti-21" value="" style="endArrow=none;html=1;rounded=0;startFill=0;" edge="1" parent="1" source="oM4cG6WDBX3puQPiR0Ti-19" target="oM4cG6WDBX3puQPiR0Ti-15">
          <mxGeometry width="50" height="50" relative="1" as="geometry">
            <mxPoint x="380" y="290" as="sourcePoint" />
            <mxPoint x="430" y="240" as="targetPoint" />
          </mxGeometry>
        </mxCell>
        <mxCell id="oM4cG6WDBX3puQPiR0Ti-24" value="Send response" style="ellipse;whiteSpace=wrap;html=1;" vertex="1" parent="1">
          <mxGeometry x="370" y="430" width="120" height="80" as="geometry" />
        </mxCell>
        <mxCell id="oM4cG6WDBX3puQPiR0Ti-25" value="" style="endArrow=none;html=1;rounded=0;entryX=1;entryY=0.5;entryDx=0;entryDy=0;curved=1;" edge="1" parent="1" target="oM4cG6WDBX3puQPiR0Ti-24">
          <mxGeometry width="50" height="50" relative="1" as="geometry">
            <mxPoint x="770" y="200" as="sourcePoint" />
            <mxPoint x="430" y="330" as="targetPoint" />
            <Array as="points">
              <mxPoint x="670" y="380" />
            </Array>
          </mxGeometry>
        </mxCell>
        <mxCell id="oM4cG6WDBX3puQPiR0Ti-27" value="" style="endArrow=none;html=1;rounded=0;exitX=0;exitY=0.5;exitDx=0;exitDy=0;entryX=1;entryY=0.5;entryDx=0;entryDy=0;" edge="1" parent="1" source="oM4cG6WDBX3puQPiR0Ti-24" target="oM4cG6WDBX3puQPiR0Ti-28">
          <mxGeometry width="50" height="50" relative="1" as="geometry">
            <mxPoint x="380" y="380" as="sourcePoint" />
            <mxPoint x="430" y="330" as="targetPoint" />
          </mxGeometry>
        </mxCell>
        <mxCell id="oM4cG6WDBX3puQPiR0Ti-28" value="Review response" style="ellipse;whiteSpace=wrap;html=1;" vertex="1" parent="1">
          <mxGeometry x="200" y="390" width="120" height="80" as="geometry" />
        </mxCell>
        <mxCell id="oM4cG6WDBX3puQPiR0Ti-29" value="" style="endArrow=none;html=1;rounded=0;exitX=0;exitY=0.5;exitDx=0;exitDy=0;" edge="1" parent="1" source="oM4cG6WDBX3puQPiR0Ti-28">
          <mxGeometry width="50" height="50" relative="1" as="geometry">
            <mxPoint x="380" y="380" as="sourcePoint" />
            <mxPoint x="80" y="210" as="targetPoint" />
          </mxGeometry>
        </mxCell>
      </root>
    </mxGraphModel>
  </diagram>
</mxfile>
